<?xml version="1.0" encoding="utf-8"?>
<!-- Generator: Adobe Illustrator 24.2.3, SVG Export Plug-In . SVG Version: 6.00 Build 0)  -->
<svg version="1.1" id="Layer_1" xmlns="http://www.w3.org/2000/svg" xmlns:xlink="http://www.w3.org/1999/xlink" x="0px" y="0px"
	 viewBox="0 0 512 512" style="enable-background:new 0 0 512 512;" xml:space="preserve">
<style type="text/css">
	.st0{fill:#09A6B1;}
	.st1{fill:#EAECED;}
</style>
<g>
	<g id="u75kyM.tif_4_">
		<g>
			<g>
				<path class="st0" d="M279.94,159.88c-4.11-5.1-9.34-6.03-12.42-1.15c-5.84,9.24-14.11,13.04-24.74,14.2
					c-1.01,0.11-1.83,1.82-2.74,2.79c1.28,0.85,2.51,2.36,3.83,2.43c5.66,0.29,11.4-0.32,16.98,0.36c3.43,0.42,7.64,1.75,9.72,4.08
					c6.59,7.37,14.27,12.31,24.53,13.68c3.11,0.41,6.11,1.59,9.16,2.41c0.3-0.94,0.6-1.88,0.9-2.82c-5.1-1.62-10.19-3.24-15.29-4.85
					c-9.62-3.04-11.86-5.13-7.17-13.3c0.52-0.92,0.55-2.08,1.04-3.02c3.69-7.01,8.61-12.47,19.32-12.56
					c-5.87,7.84-14.6,13.24-15.04,23.84c9.79-10.65,18.76-20.41,27.86-30.31c-15.84-3.19-31.76,6.62-39.18,23.85
					c-4.98-2.29-9.87-4.54-15-6.9C267.13,166.59,269.09,158.08,279.94,159.88z"/>
				<path class="st0" d="M279.94,159.88c-10.85-1.81-12.82,6.71-18.23,12.73c5.13,2.36,10.02,4.61,15,6.9
					c7.42-17.23,23.34-27.04,39.18-23.85c-9.1,9.9-18.07,19.66-27.86,30.31c0.44-10.6,9.17-16,15.04-23.84
					c-10.72,0.09-15.64,5.55-19.32,12.56c-0.49,0.94-0.52,2.1-1.04,3.02c-4.68,8.17-2.44,10.26,7.17,13.3
					c5.1,1.61,10.2,3.23,15.29,4.85c-0.3,0.94-0.6,1.88-0.9,2.82c-3.05-0.83-6.05-2-9.16-2.41c-10.27-1.36-17.95-6.31-24.53-13.68
					c-2.08-2.33-6.29-3.66-9.72-4.08c-5.58-0.68-11.33-0.07-16.98-0.36c-1.32-0.07-2.56-1.58-3.83-2.43
					c0.91-0.97,1.72-2.68,2.74-2.79c10.63-1.16,18.9-4.96,24.74-14.2C270.61,153.86,275.83,154.79,279.94,159.88z"/>
			</g>
		</g>
	</g>
	<g>
		<path class="st1" d="M63.2,339.46c-1.26-7.52-2.85-12.78-2.9-18.06c-0.2-23.13-0.14-46.27,0.21-69.41
			c0.17-10.97,1.54-21.92,1.73-32.88c0.18-10.69-2.4-12.75-13.72-12.83c-8.19-0.06-16.43,0.31-24.57-0.34
			c-5.53-0.44-10.93-2.31-17.66-3.83c4.32-7.39,10.67-7.88,16.2-8.61c6.32-0.84,12.85-0.36,19.29-0.41
			c18.36-0.17,21.04,4.09,20.84-19.98c-0.1-12.11,0.12-24.24,0.72-36.34c0.17-3.3,2.26-6.51,3.47-9.77c1.07,0.1,2.14,0.2,3.21,0.29
			c1.1,6,2.93,11.97,3.15,18c0.49,13.48,0.29,26.99,0.13,40.48c-0.06,5.13,1.85,7.52,7.64,7.43c12.58-0.2,25.18-0.22,37.75,0.12
			c6.38,0.17,8.09-2.58,7.93-7.96c-0.21-7.15-0.41-14.35,0.2-21.47c0.58-6.73,2.2-13.39,3.37-20.08c0.88-0.33,1.76-0.65,2.64-0.98
			c1.34,1.97,3.52,3.83,3.86,5.94c0.73,4.6,0.67,9.33,0.66,14.01c-0.13,69.68-0.31,139.37-0.49,209.05c0,1.38,0.48,3.05-0.18,4.07
			c-1.99,3.1-4.43,5.95-6.69,8.9c-1.28-2.92-3.67-5.84-3.67-8.77c-0.11-52.61,0.08-105.21,0.17-157.82
			c0.02-11.74-0.04-11.75-12.77-11.78c-9.66-0.02-19.36,0.46-28.97-0.19c-8.83-0.6-11.77,2.3-11.7,10.67
			c0.28,33.32,0.11,66.65-0.33,99.98C72.62,324.17,72.62,332.06,63.2,339.46z"/>
		<path class="st1" d="M343.28,383.74c-0.84-3.69-2.39-7.38-2.4-11.07c-0.09-39.4,0.01-78.8,0.18-118.21
			c0.03-6.4,0.31-12.32-9.32-12.54c-1.75-0.04-4.54-3.03-4.77-4.88c-0.17-1.4,2.7-4.09,4.69-4.6c7.9-2.02,9.99-6.65,9.63-13.94
			c-0.55-11-0.44-22.05,0.09-33.05c0.45-9.28,1.73-18.54,3.06-27.75c0.23-1.58,2.54-2.89,3.89-4.33c1.01,1.41,2.75,2.76,2.91,4.25
			c0.58,5.2,0.79,10.44,0.81,15.67c0.06,14.05,0.04,28.11-0.13,42.16c-0.17,14.48,3.77,14.99,14.64,14.39
			c3.12-0.17,6.6-0.02,9.36,1.15c2.29,0.97,5.68,4.6,5.23,5.4c-1.41,2.53-4.07,4.97-6.86,6.14c-2.46,1.04-5.75,0.39-8.68,0.41
			c-11.19,0.07-13.73,2.33-13.78,13.05c-0.18,38.3-0.15,76.6-0.51,114.9c-0.04,4.36-2.07,8.7-3.17,13.06
			C346.53,383.88,344.9,383.81,343.28,383.74z"/>
		<path class="st1" d="M450.83,283.59c17.5-1.57,32.07-2.94,46.66-4.11c2.41-0.19,6.68-0.11,7.02,0.83c0.94,2.58,1.5,6.94-0.07,8.33
			c-3.25,2.91-7.85,5.81-12.11,6.13c-13.1,0.99-26.3,0.7-39.46,1.07c-3.17,0.09-6.3,1.14-9.46,1.18c-3.14,0.04-7.9,0.38-9.07-1.24
			c-1.71-2.39-2.16-6.94-0.91-9.65c9.5-20.63,19.57-41.03,29.36-61.55c0.55-1.15,0.28-2.64,0.53-5.74c-9.06,0-17.7,0.25-26.32-0.1
			c-4.56-0.18-9.23-0.95-13.54-2.32c-2.2-0.7-3.7-3.32-5.52-5.07c2.09-1.69,3.91-4.07,6.33-4.88c2.92-0.97,6.34-0.77,9.55-0.78
			c10.83-0.05,21.65,0,32.48,0.05c11.64,0.05,15.34,5.54,10.39,15.65c-6.09,12.44-12.76,24.65-18.35,37.29
			C455.25,265.72,453.83,273.42,450.83,283.59z"/>
		<path class="st1" d="M182.87,200.92c0.88,8.3,2.43,16.59,2.49,24.89c0.11,14.52,4.04,28.04,11.77,40.3
			c2.59,4.1,8.36,8.55,12.88,8.76c3.69,0.17,8.92-5.09,11.34-9.09c8.34-13.78,10.97-28.97,10.32-44.78
			c-0.19-4.66-1.46-11.98,5.3-12.15c7.54-0.2,4.84,7.24,5.26,11.72c1.72,18.1-2.87,35.21-10.98,51.32
			c-3.82,7.58-9,15.49-19.27,16.89c-11.69,1.6-19.69-4.5-24.55-13.47c-11.82-21.79-18.41-44.63-11.76-69.27
			c0.56-2.06,2.58-3.76,3.93-5.63C180.7,200.58,181.79,200.75,182.87,200.92z"/>
		<path class="st1" d="M287.94,217.11c1.23,2.95,3.46,5.88,3.52,8.85c0.3,16.46,0.09,32.93,0.01,49.4
			c-0.01,1.36,0.17,3.14-0.63,3.99c-2.67,2.85-6.05,7.81-8.6,7.52c-5.79-0.65-4.99-6.22-4.61-10.6c1.11-12.92,2.12-25.85,3.43-38.75
			c0.67-6.62,1.9-13.18,2.88-19.77C285.27,217.54,286.61,217.32,287.94,217.11z"/>
	</g>
</g>
</svg>
